<svg width="88" height="75" viewBox="0 0 88 75" fill="none" xmlns="http://www.w3.org/2000/svg">
<path fill-rule="evenodd" clip-rule="evenodd" d="M47.8168 1.01685C45.3346 0.220945 42.6657 0.220945 40.1835 1.01685L12.9585 9.75019C11.9815 10.0682 11.1564 10.7359 10.6418 11.6252L1.32095 27.7252C1.00928 28.2638 0.822227 28.8655 0.773523 29.4859C0.724819 30.1063 0.815705 30.7297 1.0395 31.3104C1.26331 31.8911 1.61434 32.4142 2.06682 32.8415C2.5193 33.2687 3.06173 33.5892 3.65429 33.7794L33.4043 43.3294C34.3099 43.6201 35.2877 43.5922 36.1753 43.2503C37.0629 42.9085 37.8068 42.2733 38.2835 41.4502L39.8335 38.7752V48.4294C39.8334 49.0858 39.6783 49.7329 39.3808 50.318C39.0832 50.9031 38.6516 51.4096 38.1212 51.7963C37.5907 52.1829 36.9764 52.4388 36.3284 52.543C35.6803 52.6473 35.0167 52.5969 34.3918 52.396L10.0668 44.5919V58.2502C10.066 60.0152 10.6256 61.7349 11.6649 63.1614C12.7043 64.5879 14.1698 65.6476 15.8501 66.1877L40.1835 73.9877C42.6657 74.7836 45.3346 74.7836 47.8168 73.9877L72.1501 66.1877C73.8312 65.6483 75.2976 64.589 76.3378 63.1624C77.378 61.7358 77.9382 60.0157 77.9376 58.2502L77.9293 44.5919L53.6085 52.396C52.9832 52.597 52.3193 52.6473 51.6709 52.5429C51.0224 52.4384 50.4079 52.1822 49.8774 51.7951C49.3468 51.4079 48.9153 50.9008 48.6181 50.3152C48.3208 49.7296 48.1661 49.082 48.1668 48.4252V38.771L49.7126 41.446C50.1899 42.2683 50.9341 42.9027 51.8216 43.2438C52.7091 43.5848 53.6866 43.6121 54.5918 43.321L84.346 33.7794C84.9391 33.5894 85.4821 33.2688 85.935 32.8412C86.3879 32.4137 86.7393 31.8901 86.9631 31.3088C87.187 30.7276 87.2777 30.1036 87.2286 29.4827C87.1794 28.8618 86.9917 28.2598 86.6793 27.721L77.3585 11.6252C76.8438 10.7359 76.0188 10.0682 75.0418 9.75019L47.8168 1.01685ZM60.121 13.7169L44.0001 18.8877L27.8751 13.7169L42.7251 8.95019C43.5529 8.68459 44.4431 8.68459 45.271 8.95019L60.121 13.7169Z" fill="#4B93AD"/>
</svg>
