<svg width="30" height="32" viewBox="0 0 30 32" fill="none" xmlns="http://www.w3.org/2000/svg">
<path d="M13.2619 26.2113C4.66129 25.1818 1.00041 18.424 0.24505 15.1738C-1.07244 20.9153 2.7219 32.8436 16.5293 31.9527C28.957 31.1508 30.969 18.6385 29.6515 15.1738C29.4934 17.995 24.0126 27.4982 13.2619 26.2113Z" fill="#1C6D89"/>
<path d="M9.9945 18.094C15.4331 23.004 22.2384 21.1298 24.9612 19.5789C18.5319 27.2012 6.62172 25.4193 3.56513 17.5001C0.508547 9.58084 5.72582 4.97777 7.88651 3.74039C7.14871 5.17575 3.19623 11.9566 9.9945 18.094Z" fill="#1C6D89"/>
<path d="M16.1604 9.53134C15.9917 13.8077 18.7251 17.3846 20.1129 18.6385C16.3712 19.5789 7.93921 17.5991 8.15001 9.18488C8.36081 0.770664 16.7401 -0.351226 20.5345 0.0777336C19.1467 1.4471 16.329 5.25495 16.1604 9.53134Z" fill="#1C6D89"/>
</svg>
