<svg width="219" height="32" viewBox="0 0 219 32" fill="none" xmlns="http://www.w3.org/2000/svg">
<path d="M13.2619 26.2113C4.66129 25.1818 1.00041 18.424 0.24505 15.1738C-1.07244 20.9153 2.7219 32.8436 16.5293 31.9527C28.957 31.1508 30.969 18.6385 29.6515 15.1738C29.4934 17.995 24.0126 27.4982 13.2619 26.2113Z" fill="#1C6D89"/>
<path d="M9.9945 18.094C15.4331 23.004 22.2384 21.1298 24.9612 19.5789C18.5319 27.2012 6.62172 25.4193 3.56513 17.5001C0.508547 9.58084 5.72582 4.97777 7.88651 3.74039C7.14871 5.17575 3.19623 11.9566 9.9945 18.094Z" fill="#1C6D89"/>
<path d="M16.1604 9.53134C15.9917 13.8077 18.7251 17.3846 20.1129 18.6385C16.3712 19.5789 7.93921 17.5991 8.15001 9.18488C8.36081 0.770664 16.7401 -0.351226 20.5345 0.0777336C19.1467 1.4471 16.329 5.25495 16.1604 9.53134Z" fill="#1C6D89"/>
<path d="M49.8437 7H38C37.4477 7 37 7.44771 37 8V9.59703C37 10.1493 37.4477 10.597 38 10.597H49.8437C50.396 10.597 50.8437 10.1493 50.8437 9.59703V8C50.8437 7.44772 50.396 7 49.8437 7Z" fill="#4B93AD"/>
<path d="M48.7006 14.1941H38C37.4477 14.1941 37 14.6418 37 15.1941V16.667C37 17.2193 37.4477 17.667 38 17.667H48.7006C49.2529 17.667 49.7006 17.2193 49.7006 16.667V15.1941C49.7006 14.6418 49.2529 14.1941 48.7006 14.1941Z" fill="#4B93AD"/>
<path d="M49.8437 21.3881H38C37.4477 21.3881 37 21.8358 37 22.3881V23.9851C37 24.5374 37.4477 24.9851 38 24.9851H49.8437C50.396 24.9851 50.8437 24.5374 50.8437 23.9851V22.3881C50.8437 21.8358 50.396 21.3881 49.8437 21.3881Z" fill="#4B93AD"/>
<path d="M64.0207 24.9851H61.9249C61.5212 24.9851 61.1571 24.7424 61.0018 24.3697L54.3417 8.3846C54.0673 7.72591 54.5512 7 55.2648 7H62.9253C63.4776 7 63.9253 7.44771 63.9253 8V9.59703C63.9253 10.1493 63.4776 10.597 62.9253 10.597H60.8319C60.124 10.597 59.6402 11.3124 59.9038 11.9694L62.104 17.4524C62.4404 18.2906 63.6276 18.2887 63.9613 17.4495L67.8658 7.63049C68.0172 7.24984 68.3854 7 68.795 7H70.6808C71.3943 7 71.8783 7.72591 71.6039 8.3846L64.9438 24.3697C64.7885 24.7424 64.4244 24.9851 64.0207 24.9851Z" fill="#4B93AD"/>
<path d="M88.9616 7H77.1179C76.5656 7 76.1179 7.44771 76.1179 8V9.59703C76.1179 10.1493 76.5656 10.597 77.1179 10.597H88.9616C89.5139 10.597 89.9616 10.1493 89.9616 9.59703V8C89.9616 7.44772 89.5139 7 88.9616 7Z" fill="#4B93AD"/>
<path d="M87.8186 14.1941H77.1179C76.5656 14.1941 76.1179 14.6418 76.1179 15.1941V16.667C76.1179 17.2193 76.5657 17.667 77.1179 17.667H87.8186C88.3708 17.667 88.8186 17.2193 88.8186 16.667V15.1941C88.8186 14.6418 88.3708 14.1941 87.8186 14.1941Z" fill="#4B93AD"/>
<path d="M88.9616 21.3881H77.1179C76.5656 21.3881 76.1179 21.8358 76.1179 22.3881V23.9851C76.1179 24.5374 76.5656 24.9851 77.1179 24.9851H88.9616C89.5139 24.9851 89.9616 24.5374 89.9616 23.9851V22.3881C89.9616 21.8358 89.5139 21.3881 88.9616 21.3881Z" fill="#4B93AD"/>
<path d="M97.598 24.9851H96.0419C95.4896 24.9851 95.0419 24.5374 95.0419 23.9851V19.6593C95.0419 19.107 95.4896 18.6593 96.0419 18.6593H97.598C98.1503 18.6593 98.598 19.107 98.598 19.6593V23.9851C98.598 24.5374 98.1503 24.9851 97.598 24.9851Z" fill="#4B93AD"/>
<path d="M98.103 7H95.0419C94.7257 7 94.5438 7.35938 94.7309 7.61419L107.189 24.5771C107.377 24.8336 107.676 24.9851 107.995 24.9851H110.045C110.597 24.9851 111.045 24.5374 111.045 23.9851V8C111.045 7.44772 110.597 7 110.045 7H108.488C107.936 7 107.488 7.44772 107.488 8V15.6987C107.488 16.6557 106.274 17.066 105.693 16.305L98.8982 7.39365C98.7091 7.14558 98.415 7 98.103 7Z" fill="#4B93AD"/>
<path d="M118.808 10.597H116.871C116.319 10.597 115.871 10.1493 115.871 9.59703V8C115.871 7.44772 116.319 7 116.871 7H118.808C119.36 7 119.808 7.44771 119.808 8V9.59703C119.808 10.1493 119.36 10.597 118.808 10.597Z" fill="#4B93AD"/>
<path d="M129.858 7H122.459C121.907 7 121.459 7.44771 121.459 8V23.9851C121.459 24.5374 121.907 24.9851 122.459 24.9851H124.142C124.695 24.9851 125.142 24.5374 125.142 23.9851V11.597C125.142 11.0447 125.59 10.597 126.142 10.597H129.858C130.41 10.597 130.858 10.1493 130.858 9.59703V8C130.858 7.44772 130.41 7 129.858 7Z" fill="#4B93AD"/>
<path d="M137.986 7H136.684C136.132 7 135.684 7.44772 135.684 8V12.3258C135.684 12.8781 136.132 13.3258 136.684 13.3258H137.986C138.538 13.3258 138.986 12.8781 138.986 12.3258V8C138.986 7.44772 138.538 7 137.986 7Z" fill="#4B93AD"/>
<path d="M145.987 14.1941H136.684C136.132 14.1941 135.684 14.6418 135.684 15.1941V23.9851C135.684 24.5374 136.132 24.9851 136.684 24.9851H137.986C138.538 24.9851 138.986 24.5374 138.986 23.9851V18.667C138.986 18.1148 139.434 17.667 139.986 17.667H145.987C146.54 17.667 146.987 18.1148 146.987 18.667V23.9851C146.987 24.5374 147.435 24.9851 147.987 24.9851H149.671C150.223 24.9851 150.671 24.5374 150.671 23.9851V8C150.671 7.44772 150.223 7 149.671 7H147.987C147.435 7 146.987 7.44771 146.987 8V13.1941C146.987 13.7463 146.54 14.1941 145.987 14.1941Z" fill="#4B93AD"/>
<path d="M164.26 8V9.22492C164.26 9.77721 163.808 10.2448 163.283 10.4178C161.782 10.913 159.434 12.4518 159.434 16.0546C159.434 19.06 161.647 20.9683 163.286 21.5617C163.805 21.7498 164.26 22.2079 164.26 22.7602V24.0665C164.26 24.5859 163.86 25.0243 163.344 24.9696C160.309 24.6478 155.751 21.7675 155.751 16.0546C155.751 9.92583 160.159 7.50111 163.265 7.07163C163.812 6.99598 164.26 7.44772 164.26 8Z" fill="#4B93AD"/>
<path d="M170.865 16.0546C170.865 12.469 168.612 10.8295 166.898 10.3674C166.364 10.2237 165.911 9.77721 165.911 9.22492V8C165.911 7.44772 166.36 6.99642 166.906 7.0786C169.924 7.53281 174.33 10.0148 174.421 16.0546C174.511 22.0771 169.887 24.4633 166.906 24.9066C166.359 24.9878 165.911 24.5374 165.911 23.9851V22.6576C165.911 22.147 166.299 21.7225 166.788 21.5759C168.464 21.073 170.865 19.5452 170.865 16.0546Z" fill="#4B93AD"/>
<path d="M186.867 8V9.22492C186.867 9.77721 186.415 10.2448 185.89 10.4178C184.389 10.913 182.041 12.4518 182.041 16.0546C182.041 19.06 184.254 20.9683 185.893 21.5617C186.412 21.7498 186.867 22.2079 186.867 22.7602V24.0665C186.867 24.5859 186.467 25.0243 185.951 24.9696C182.916 24.6478 178.358 21.7675 178.358 16.0546C178.358 9.92583 182.766 7.50111 185.872 7.07163C186.419 6.99598 186.867 7.44772 186.867 8Z" fill="#4B93AD"/>
<path d="M193.472 16.0546C193.472 12.469 191.219 10.8295 189.505 10.3674C188.971 10.2237 188.518 9.77721 188.518 9.22492V8C188.518 7.44772 188.967 6.99642 189.513 7.0786C192.531 7.53281 196.937 10.0148 197.028 16.0546C197.119 22.0771 192.494 24.4633 189.513 24.9066C188.967 24.9878 188.518 24.5374 188.518 23.9851V22.6576C188.518 22.147 188.906 21.7225 189.395 21.5759C191.072 21.073 193.472 19.5452 193.472 16.0546Z" fill="#4B93AD"/>
<path d="M202.235 17.2451V23.9851C202.235 24.5374 202.683 24.9851 203.235 24.9851H204.791C205.344 24.9851 205.791 24.5374 205.791 23.9851V18.9724C205.791 18.6937 205.908 18.4277 206.112 18.2384L207.365 17.0798C207.809 16.6686 208.514 16.7436 208.862 17.2392L214.002 24.5598C214.189 24.8264 214.495 24.9851 214.821 24.9851H217.053C217.867 24.9851 218.34 24.0643 217.866 23.4026L211.508 14.5326C211.216 14.1257 211.271 13.5657 211.635 13.2223L216.404 8.72778C217.063 8.10692 216.624 7 215.719 7H213.541C213.294 7 213.056 7.09104 212.873 7.25564L202.567 16.5008C202.356 16.6904 202.235 16.9611 202.235 17.2451Z" fill="#4B93AD"/>
<path d="M204.791 13.0777H203.235C202.683 13.0777 202.235 12.63 202.235 12.0777V8C202.235 7.44772 202.683 7 203.235 7H204.791C205.344 7 205.791 7.44771 205.791 8V12.0777C205.791 12.63 205.344 13.0777 204.791 13.0777Z" fill="#4B93AD"/>
</svg>
