<svg width="332" height="57" viewBox="0 0 332 57" fill="none" xmlns="http://www.w3.org/2000/svg">
<path d="M21.219 41.7742C7.45806 40.1334 1.60066 29.3633 0.39208 24.1833C-1.71591 33.3337 4.35505 52.3446 26.4468 50.9247C46.3312 49.6467 49.5504 29.7051 47.4424 24.1833C47.1895 28.6796 38.4202 43.8252 21.219 41.7742Z" fill="#1C6D89"/>
<path d="M15.9912 28.8374C24.693 36.6626 35.5815 33.6755 39.938 31.2039C29.651 43.3519 10.5947 40.5121 5.70421 27.8908C0.813675 15.2695 9.16131 7.93333 12.6184 5.96125C11.4379 8.24886 5.11397 19.0559 15.9912 28.8374Z" fill="#1C6D89"/>
<path d="M25.8566 15.1906C25.5868 22.0061 29.9602 27.7067 32.1806 29.7051C26.1939 31.2039 12.7027 28.0485 13.04 14.6384C13.3773 1.22825 26.7841 -0.559766 32.8551 0.123888C30.6347 2.30632 26.1264 8.37507 25.8566 15.1906Z" fill="#1C6D89"/>
<path d="M75.0698 0H56C55.4477 0 55 0.447714 55 0.999999V4.59538C55 5.14766 55.4477 5.59538 56 5.59538H75.0698C75.6221 5.59538 76.0698 5.14766 76.0698 4.59538V1C76.0698 0.447715 75.6221 0 75.0698 0Z" fill="#4B93AD"/>
<path d="M73.3301 11.1908H56C55.4477 11.1908 55 11.6385 55 12.1908V15.5932C55 16.1455 55.4477 16.5932 56 16.5932H73.3301C73.8824 16.5932 74.3301 16.1455 74.3301 15.5932V12.1908C74.3301 11.6385 73.8824 11.1908 73.3301 11.1908Z" fill="#4B93AD"/>
<path d="M75.0698 22.3815H56C55.4477 22.3815 55 22.8292 55 23.3815V26.9769C55 27.5292 55.4477 27.9769 56 27.9769H75.0698C75.6221 27.9769 76.0698 27.5292 76.0698 26.9769V23.3815C76.0698 22.8292 75.6221 22.3815 75.0698 22.3815Z" fill="#4B93AD"/>
<path d="M96.4673 27.9769H92.5927C92.1862 27.9769 91.8201 27.7308 91.6667 27.3544L81.0772 1.37749C80.8091 0.719763 81.293 0 82.0032 0H94.9798C95.532 0 95.9798 0.447714 95.9798 0.999999V4.59538C95.9798 5.14766 95.532 5.59538 94.9798 5.59538H90.4879C89.7831 5.59538 89.2995 6.30484 89.557 6.96083L93.6916 17.4916C94.0243 18.3391 95.2243 18.3372 95.5544 17.4888L102.111 0.637409C102.26 0.253114 102.63 0 103.043 0H107.057C107.767 0 108.251 0.719764 107.983 1.37749L97.3933 27.3544C97.2399 27.7308 96.8738 27.9769 96.4673 27.9769Z" fill="#4B93AD"/>
<path d="M134.606 0H115.537C114.984 0 114.537 0.447714 114.537 0.999999V4.59538C114.537 5.14766 114.984 5.59538 115.537 5.59538H134.606C135.159 5.59538 135.606 5.14766 135.606 4.59538V1C135.606 0.447715 135.159 0 134.606 0Z" fill="#4B93AD"/>
<path d="M132.867 11.1908H115.537C114.984 11.1908 114.537 11.6385 114.537 12.1908V15.5932C114.537 16.1455 114.984 16.5932 115.537 16.5932H132.867C133.419 16.5932 133.867 16.1455 133.867 15.5932V12.1908C133.867 11.6385 133.419 11.1908 132.867 11.1908Z" fill="#4B93AD"/>
<path d="M134.606 22.3815H115.537C114.984 22.3815 114.537 22.8292 114.537 23.3815V26.9769C114.537 27.5292 114.984 27.9769 115.537 27.9769H134.606C135.159 27.9769 135.606 27.5292 135.606 26.9769V23.3815C135.606 22.8292 135.159 22.3815 134.606 22.3815Z" fill="#4B93AD"/>
<path d="M147.751 27.9769H144.338C143.786 27.9769 143.338 27.5292 143.338 26.9769V19.1367C143.338 18.5845 143.786 18.1367 144.338 18.1367H147.751C148.303 18.1367 148.751 18.5845 148.751 19.1367V26.9769C148.751 27.5292 148.303 27.9769 147.751 27.9769Z" fill="#4B93AD"/>
<path d="M148.249 0H143.338C142.854 0 142.573 0.548364 142.855 0.94186L161.983 27.5604C162.171 27.8219 162.473 27.9769 162.795 27.9769H166.694C167.247 27.9769 167.694 27.5292 167.694 26.9769V1C167.694 0.447715 167.247 0 166.694 0H163.282C162.73 0 162.282 0.447716 162.282 1V15.1241C162.282 16.0863 161.056 16.4933 160.48 15.722L149.051 0.402024C148.862 0.149029 148.565 0 148.249 0Z" fill="#4B93AD"/>
<path d="M180.032 5.59538H176.04C175.487 5.59538 175.04 5.14766 175.04 4.59538V1C175.04 0.447715 175.487 0 176.04 0H180.032C180.584 0 181.032 0.447714 181.032 0.999999V4.59538C181.032 5.14766 180.584 5.59538 180.032 5.59538Z" fill="#4B93AD"/>
<path d="M196.849 0H184.545C183.993 0 183.545 0.447716 183.545 1V26.9769C183.545 27.5292 183.993 27.9769 184.545 27.9769H188.151C188.703 27.9769 189.151 27.5292 189.151 26.9769V6.59538C189.151 6.04309 189.598 5.59538 190.151 5.59538H196.849C197.402 5.59538 197.849 5.14766 197.849 4.59538V1C197.849 0.447715 197.402 0 196.849 0Z" fill="#4B93AD"/>
<path d="M209.221 0H206.195C205.642 0 205.195 0.447715 205.195 1V8.84015C205.195 9.39243 205.642 9.84015 206.195 9.84015H209.221C209.773 9.84015 210.221 9.39243 210.221 8.84015V1C210.221 0.447715 209.773 0 209.221 0Z" fill="#4B93AD"/>
<path d="M221.398 11.1908H206.195C205.642 11.1908 205.195 11.6385 205.195 12.1908V26.9769C205.195 27.5292 205.642 27.9769 206.195 27.9769H209.221C209.773 27.9769 210.221 27.5292 210.221 26.9769V17.5932C210.221 17.0409 210.668 16.5932 211.221 16.5932H221.398C221.951 16.5932 222.398 17.0409 222.398 17.5932V26.9769C222.398 27.5292 222.846 27.9769 223.398 27.9769H227.004C227.556 27.9769 228.004 27.5292 228.004 26.9769V1C228.004 0.447715 227.556 0 227.004 0H223.398C222.846 0 222.398 0.447714 222.398 0.999999V10.1908C222.398 10.743 221.951 11.1908 221.398 11.1908Z" fill="#4B93AD"/>
<path d="M248.687 1V4.01654C248.687 4.56883 248.236 5.02942 247.702 5.16722C245.486 5.7382 241.342 8.0504 241.342 14.0849C241.342 19.0792 245.185 22.1258 247.701 22.812C248.234 22.9573 248.687 23.4081 248.687 23.9603V27.0599C248.687 27.5787 248.29 28.0165 247.772 27.9908C243.171 27.7626 235.736 23.285 235.736 14.0849C235.736 4.19704 242.953 0.507153 247.69 0.0496672C248.24 -0.0034163 248.687 0.447716 248.687 1Z" fill="#4B93AD"/>
<path d="M258.739 14.0849C258.739 8.13643 254.839 5.63123 252.193 5.11873C251.65 5.01373 251.2 4.56883 251.2 4.01654V1C251.2 0.447715 251.647 -0.00335754 252.196 0.0548761C256.785 0.541397 264.008 4.33009 264.151 14.0849C264.295 23.8178 256.693 27.4454 252.196 27.9216C251.647 27.9797 251.2 27.5292 251.2 26.9769V23.8556C251.2 23.3459 251.584 22.9219 252.079 22.7997C254.625 22.171 258.739 19.8473 258.739 14.0849Z" fill="#4B93AD"/>
<path d="M283.095 1V4.01654C283.095 4.56883 282.644 5.02942 282.109 5.16722C279.893 5.7382 275.749 8.0504 275.749 14.0849C275.749 19.0792 279.593 22.1258 282.109 22.812C282.642 22.9573 283.095 23.4081 283.095 23.9603V27.0599C283.095 27.5787 282.697 28.0165 282.179 27.9908C277.579 27.7626 270.144 23.285 270.144 14.0849C270.144 4.19704 277.36 0.507153 282.098 0.0496672C282.648 -0.0034163 283.095 0.447716 283.095 1Z" fill="#4B93AD"/>
<path d="M293.147 14.0849C293.147 8.13643 289.247 5.63123 286.6 5.11873C286.058 5.01373 285.608 4.56883 285.608 4.01654V1C285.608 0.447715 286.055 -0.00335754 286.604 0.0548761C291.192 0.541397 298.415 4.33009 298.559 14.0849C298.702 23.8178 291.1 27.4454 286.603 27.9216C286.054 27.9797 285.608 27.5292 285.608 26.9769V23.8556C285.608 23.3459 285.991 22.9219 286.486 22.7997C289.032 22.171 293.147 19.8473 293.147 14.0849Z" fill="#4B93AD"/>
<path d="M306.484 15.6824V26.9769C306.484 27.5292 306.932 27.9769 307.484 27.9769H310.897C311.449 27.9769 311.897 27.5292 311.897 26.9769V18.3745C311.897 18.0996 312.01 17.8368 312.21 17.6479L314.72 15.274C315.166 14.8521 315.884 14.9282 316.231 15.4343L324.55 27.5431C324.736 27.8146 325.045 27.9769 325.374 27.9769H330.077C330.887 27.9769 331.361 27.0654 330.896 26.4027L320.313 11.3126C320.031 10.9093 320.084 10.36 320.439 10.0182L329.054 1.72026C329.702 1.09593 329.26 0 328.36 0H323.497C323.247 0 323.006 0.0938187 322.821 0.262934L306.808 14.9453C306.602 15.1347 306.484 15.4021 306.484 15.6824Z" fill="#4B93AD"/>
<path d="M310.897 9.45426H307.484C306.932 9.45426 306.484 9.00654 306.484 8.45426V1C306.484 0.447715 306.932 0 307.484 0H310.897C311.449 0 311.897 0.447716 311.897 1V8.45426C311.897 9.00654 311.449 9.45426 310.897 9.45426Z" fill="#4B93AD"/>
<path d="M62.9297 45.1235V46.2351H57.3506V45.1235H62.9297ZM57.563 40.6914V51H56.1965V40.6914H57.563ZM64.1191 40.6914V51H62.7598V40.6914H64.1191ZM66.0024 47.2546V47.0918C66.0024 46.5396 66.0827 46.0274 66.2432 45.5554C66.4036 45.0787 66.6349 44.6657 66.937 44.3164C67.2391 43.9624 67.6049 43.6886 68.0344 43.4951C68.4639 43.2969 68.9454 43.1978 69.4788 43.1978C70.0168 43.1978 70.5007 43.2969 70.9302 43.4951C71.3644 43.6886 71.7326 43.9624 72.0347 44.3164C72.3415 44.6657 72.5751 45.0787 72.7356 45.5554C72.8961 46.0274 72.9763 46.5396 72.9763 47.0918V47.2546C72.9763 47.8069 72.8961 48.319 72.7356 48.791C72.5751 49.263 72.3415 49.676 72.0347 50.03C71.7326 50.3793 71.3668 50.6531 70.9373 50.8513C70.5125 51.0448 70.031 51.1416 69.4929 51.1416C68.9548 51.1416 68.471 51.0448 68.0415 50.8513C67.612 50.6531 67.2438 50.3793 66.937 50.03C66.6349 49.676 66.4036 49.263 66.2432 48.791C66.0827 48.319 66.0024 47.8069 66.0024 47.2546ZM67.3123 47.0918V47.2546C67.3123 47.637 67.3571 47.998 67.4468 48.3379C67.5365 48.673 67.671 48.9704 67.8503 49.23C68.0344 49.4896 68.2633 49.6949 68.5371 49.8459C68.8109 49.9923 69.1295 50.0654 69.4929 50.0654C69.8516 50.0654 70.1655 49.9923 70.4346 49.8459C70.7083 49.6949 70.9349 49.4896 71.1143 49.23C71.2936 48.9704 71.4281 48.673 71.5178 48.3379C71.6122 47.998 71.6594 47.637 71.6594 47.2546V47.0918C71.6594 46.7142 71.6122 46.3578 71.5178 46.0227C71.4281 45.6829 71.2913 45.3831 71.1072 45.1235C70.9278 44.8592 70.7013 44.6515 70.4275 44.5005C70.1584 44.3494 69.8422 44.2739 69.4788 44.2739C69.12 44.2739 68.8038 44.3494 68.53 44.5005C68.261 44.6515 68.0344 44.8592 67.8503 45.1235C67.671 45.3831 67.5365 45.6829 67.4468 46.0227C67.3571 46.3578 67.3123 46.7142 67.3123 47.0918ZM74.272 47.2546V47.0918C74.272 46.5396 74.3522 46.0274 74.5127 45.5554C74.6732 45.0787 74.9045 44.6657 75.2065 44.3164C75.5086 43.9624 75.8744 43.6886 76.304 43.4951C76.7335 43.2969 77.2149 43.1978 77.7483 43.1978C78.2864 43.1978 78.7702 43.2969 79.1997 43.4951C79.634 43.6886 80.0021 43.9624 80.3042 44.3164C80.611 44.6657 80.8446 45.0787 81.0051 45.5554C81.1656 46.0274 81.2458 46.5396 81.2458 47.0918V47.2546C81.2458 47.8069 81.1656 48.319 81.0051 48.791C80.8446 49.263 80.611 49.676 80.3042 50.03C80.0021 50.3793 79.6363 50.6531 79.2068 50.8513C78.782 51.0448 78.3005 51.1416 77.7625 51.1416C77.2244 51.1416 76.7406 51.0448 76.311 50.8513C75.8815 50.6531 75.5133 50.3793 75.2065 50.03C74.9045 49.676 74.6732 49.263 74.5127 48.791C74.3522 48.319 74.272 47.8069 74.272 47.2546ZM75.5818 47.0918V47.2546C75.5818 47.637 75.6266 47.998 75.7163 48.3379C75.806 48.673 75.9405 48.9704 76.1199 49.23C76.304 49.4896 76.5329 49.6949 76.8066 49.8459C77.0804 49.9923 77.399 50.0654 77.7625 50.0654C78.1212 50.0654 78.4351 49.9923 78.7041 49.8459C78.9779 49.6949 79.2044 49.4896 79.3838 49.23C79.5632 48.9704 79.6977 48.673 79.7874 48.3379C79.8818 47.998 79.929 47.637 79.929 47.2546V47.0918C79.929 46.7142 79.8818 46.3578 79.7874 46.0227C79.6977 45.6829 79.5608 45.3831 79.3767 45.1235C79.1973 44.8592 78.9708 44.6515 78.697 44.5005C78.428 44.3494 78.1117 44.2739 77.7483 44.2739C77.3896 44.2739 77.0733 44.3494 76.7996 44.5005C76.5305 44.6515 76.304 44.8592 76.1199 45.1235C75.9405 45.3831 75.806 45.6829 75.7163 46.0227C75.6266 46.3578 75.5818 46.7142 75.5818 47.0918ZM84.2053 40.125V51H82.8884V40.125H84.2053ZM88.8853 43.3394L85.5435 46.9148L83.6743 48.8547L83.5681 47.46L84.9062 45.8599L87.2852 43.3394H88.8853ZM87.6887 51L84.9558 47.3467L85.6355 46.1785L89.2322 51H87.6887ZM94.5068 40.6914L97.1831 45.8669L99.8665 40.6914H101.417L97.8628 47.1484V51H96.4963V47.1484L92.9421 40.6914H94.5068ZM101.729 47.2546V47.0918C101.729 46.5396 101.809 46.0274 101.969 45.5554C102.13 45.0787 102.361 44.6657 102.663 44.3164C102.965 43.9624 103.331 43.6886 103.76 43.4951C104.19 43.2969 104.671 43.1978 105.205 43.1978C105.743 43.1978 106.227 43.2969 106.656 43.4951C107.09 43.6886 107.459 43.9624 107.761 44.3164C108.068 44.6657 108.301 45.0787 108.462 45.5554C108.622 46.0274 108.702 46.5396 108.702 47.0918V47.2546C108.702 47.8069 108.622 48.319 108.462 48.791C108.301 49.263 108.068 49.676 107.761 50.03C107.459 50.3793 107.093 50.6531 106.663 50.8513C106.239 51.0448 105.757 51.1416 105.219 51.1416C104.681 51.1416 104.197 51.0448 103.768 50.8513C103.338 50.6531 102.97 50.3793 102.663 50.03C102.361 49.676 102.13 49.263 101.969 48.791C101.809 48.319 101.729 47.8069 101.729 47.2546ZM103.038 47.0918V47.2546C103.038 47.637 103.083 47.998 103.173 48.3379C103.263 48.673 103.397 48.9704 103.576 49.23C103.76 49.4896 103.989 49.6949 104.263 49.8459C104.537 49.9923 104.856 50.0654 105.219 50.0654C105.578 50.0654 105.892 49.9923 106.161 49.8459C106.434 49.6949 106.661 49.4896 106.84 49.23C107.02 48.9704 107.154 48.673 107.244 48.3379C107.338 47.998 107.385 47.637 107.385 47.2546V47.0918C107.385 46.7142 107.338 46.3578 107.244 46.0227C107.154 45.6829 107.017 45.3831 106.833 45.1235C106.654 44.8592 106.427 44.6515 106.154 44.5005C105.885 44.3494 105.568 44.2739 105.205 44.2739C104.846 44.2739 104.53 44.3494 104.256 44.5005C103.987 44.6515 103.76 44.8592 103.576 45.1235C103.397 45.3831 103.263 45.6829 103.173 46.0227C103.083 46.3578 103.038 46.7142 103.038 47.0918ZM115.032 49.23V43.3394H116.349V51H115.096L115.032 49.23ZM115.28 47.6157L115.825 47.6016C115.825 48.1113 115.771 48.5833 115.662 49.0176C115.558 49.4471 115.388 49.82 115.152 50.1362C114.916 50.4525 114.607 50.7003 114.225 50.8796C113.843 51.0543 113.378 51.1416 112.83 51.1416C112.457 51.1416 112.115 51.0873 111.803 50.9788C111.497 50.8702 111.232 50.7026 111.01 50.4761C110.789 50.2495 110.616 49.9545 110.494 49.5911C110.376 49.2276 110.317 48.791 110.317 48.2812V43.3394H111.626V48.2954C111.626 48.64 111.664 48.9255 111.74 49.1521C111.82 49.3739 111.926 49.5509 112.058 49.6831C112.195 49.8105 112.346 49.9002 112.511 49.9521C112.681 50.0041 112.856 50.03 113.035 50.03C113.592 50.03 114.034 49.9238 114.359 49.7114C114.685 49.4943 114.919 49.204 115.06 48.8406C115.207 48.4724 115.28 48.0641 115.28 47.6157ZM119.655 44.543V51H118.345V43.3394H119.62L119.655 44.543ZM122.048 43.2969L122.041 44.5146C121.933 44.491 121.829 44.4769 121.73 44.4722C121.635 44.4627 121.527 44.458 121.404 44.458C121.102 44.458 120.835 44.5052 120.604 44.5996C120.373 44.694 120.177 44.8262 120.016 44.9961C119.856 45.166 119.728 45.369 119.634 45.605C119.544 45.8363 119.485 46.0911 119.457 46.3696L119.089 46.582C119.089 46.1195 119.134 45.6852 119.223 45.2793C119.318 44.8734 119.462 44.5146 119.655 44.2031C119.849 43.8869 120.094 43.6414 120.392 43.4668C120.694 43.2874 121.052 43.1978 121.468 43.1978C121.562 43.1978 121.671 43.2096 121.793 43.2332C121.916 43.252 122.001 43.2733 122.048 43.2969ZM130.856 46.9573H128.102V45.8457H130.856C131.389 45.8457 131.821 45.7607 132.152 45.5908C132.482 45.4209 132.723 45.1849 132.874 44.8828C133.03 44.5807 133.107 44.2362 133.107 43.8491C133.107 43.4951 133.03 43.1624 132.874 42.8508C132.723 42.5393 132.482 42.2891 132.152 42.1003C131.821 41.9068 131.389 41.8101 130.856 41.8101H128.42V51H127.054V40.6914H130.856C131.635 40.6914 132.293 40.8259 132.831 41.095C133.369 41.364 133.778 41.7369 134.056 42.2136C134.335 42.6856 134.474 43.2261 134.474 43.835C134.474 44.4958 134.335 45.0598 134.056 45.5271C133.778 45.9944 133.369 46.3507 132.831 46.5962C132.293 46.8369 131.635 46.9573 130.856 46.9573ZM140.435 49.6902V45.7466C140.435 45.4445 140.374 45.1825 140.251 44.9607C140.133 44.7341 139.954 44.5595 139.713 44.4368C139.472 44.314 139.175 44.2527 138.821 44.2527C138.491 44.2527 138.2 44.3093 137.95 44.4226C137.705 44.5359 137.511 44.6846 137.37 44.8687C137.233 45.0527 137.164 45.251 137.164 45.4634H135.854C135.854 45.1896 135.925 44.9182 136.067 44.6492C136.208 44.3801 136.411 44.137 136.676 43.9199C136.945 43.6981 137.266 43.5234 137.639 43.396C138.016 43.2638 138.436 43.1978 138.899 43.1978C139.456 43.1978 139.947 43.2922 140.372 43.481C140.801 43.6698 141.136 43.9553 141.377 44.3376C141.622 44.7153 141.745 45.1896 141.745 45.7607V49.3291C141.745 49.584 141.766 49.8554 141.809 50.1433C141.856 50.4312 141.924 50.679 142.014 50.8867V51H140.648C140.582 50.849 140.53 50.6484 140.492 50.3982C140.454 50.1433 140.435 49.9073 140.435 49.6902ZM140.662 46.3555L140.676 47.2759H139.352C138.979 47.2759 138.646 47.3066 138.354 47.3679C138.061 47.4246 137.816 47.5119 137.617 47.6299C137.419 47.7479 137.268 47.8966 137.164 48.0759C137.06 48.2506 137.009 48.4559 137.009 48.6919C137.009 48.9326 137.063 49.1521 137.171 49.3503C137.28 49.5486 137.443 49.7067 137.66 49.8247C137.882 49.938 138.153 49.9946 138.474 49.9946C138.875 49.9946 139.229 49.9097 139.536 49.7397C139.843 49.5698 140.086 49.3621 140.265 49.1167C140.449 48.8713 140.549 48.6329 140.563 48.4016L141.122 49.0317C141.089 49.23 140.999 49.4495 140.853 49.6902C140.707 49.9309 140.511 50.1622 140.265 50.384C140.025 50.6012 139.737 50.7829 139.402 50.9292C139.071 51.0708 138.698 51.1416 138.283 51.1416C137.764 51.1416 137.308 51.0401 136.917 50.8372C136.529 50.6342 136.227 50.3628 136.01 50.0229C135.798 49.6784 135.692 49.2937 135.692 48.8689C135.692 48.4583 135.772 48.0972 135.932 47.7856C136.093 47.4694 136.324 47.2074 136.626 46.9998C136.928 46.7874 137.292 46.6269 137.717 46.5183C138.141 46.4097 138.616 46.3555 139.14 46.3555H140.662ZM145.115 44.543V51H143.805V43.3394H145.08L145.115 44.543ZM147.508 43.2969L147.501 44.5146C147.393 44.491 147.289 44.4769 147.19 44.4722C147.095 44.4627 146.987 44.458 146.864 44.458C146.562 44.458 146.295 44.5052 146.064 44.5996C145.833 44.694 145.637 44.8262 145.476 44.9961C145.316 45.166 145.188 45.369 145.094 45.605C145.004 45.8363 144.945 46.0911 144.917 46.3696L144.549 46.582C144.549 46.1195 144.594 45.6852 144.683 45.2793C144.778 44.8734 144.922 44.5146 145.115 44.2031C145.309 43.8869 145.554 43.6414 145.852 43.4668C146.154 43.2874 146.512 43.1978 146.928 43.1978C147.022 43.1978 147.131 43.2096 147.253 43.2332C147.376 43.252 147.461 43.2733 147.508 43.2969ZM152.28 43.3394V44.3447H148.138V43.3394H152.28ZM149.54 41.4773H150.85V49.1025C150.85 49.3621 150.89 49.558 150.97 49.6902C151.051 49.8223 151.155 49.9097 151.282 49.9521C151.409 49.9946 151.546 50.0159 151.693 50.0159C151.801 50.0159 151.914 50.0064 152.032 49.9875C152.155 49.9639 152.247 49.9451 152.309 49.9309L152.316 51C152.212 51.033 152.075 51.0637 151.905 51.092C151.74 51.1251 151.539 51.1416 151.303 51.1416C150.982 51.1416 150.687 51.0779 150.418 50.9504C150.149 50.823 149.934 50.6106 149.774 50.3132C149.618 50.0111 149.54 49.6052 149.54 49.0955V41.4773ZM155.24 43.3394V51H153.923V43.3394H155.24ZM153.824 41.3074C153.824 41.095 153.887 40.9156 154.015 40.7693C154.147 40.623 154.341 40.5498 154.595 40.5498C154.846 40.5498 155.037 40.623 155.169 40.7693C155.306 40.9156 155.374 41.095 155.374 41.3074C155.374 41.5103 155.306 41.685 155.169 41.8313C155.037 41.9729 154.846 42.0437 154.595 42.0437C154.341 42.0437 154.147 41.9729 154.015 41.8313C153.887 41.685 153.824 41.5103 153.824 41.3074ZM160.408 50.0654C160.72 50.0654 161.008 50.0017 161.272 49.8743C161.536 49.7468 161.753 49.5722 161.923 49.3503C162.093 49.1238 162.19 48.8665 162.214 48.5786H163.46C163.436 49.0317 163.283 49.4542 163 49.8459C162.721 50.233 162.355 50.5469 161.902 50.7876C161.449 51.0236 160.951 51.1416 160.408 51.1416C159.832 51.1416 159.33 51.0401 158.9 50.8372C158.475 50.6342 158.121 50.3557 157.838 50.0017C157.56 49.6477 157.35 49.2418 157.208 48.7839C157.071 48.3214 157.003 47.8328 157.003 47.3184V47.021C157.003 46.5065 157.071 46.0203 157.208 45.5625C157.35 45.0999 157.56 44.6917 157.838 44.3376C158.121 43.9836 158.475 43.7052 158.9 43.5022C159.33 43.2992 159.832 43.1978 160.408 43.1978C161.008 43.1978 161.532 43.3205 161.98 43.5659C162.428 43.8066 162.78 44.137 163.035 44.5571C163.295 44.9725 163.436 45.4445 163.46 45.9731H162.214C162.19 45.6569 162.1 45.3713 161.945 45.1165C161.794 44.8616 161.586 44.6586 161.322 44.5076C161.062 44.3518 160.757 44.2739 160.408 44.2739C160.007 44.2739 159.67 44.3542 159.396 44.5146C159.127 44.6704 158.912 44.8828 158.751 45.1519C158.596 45.4162 158.482 45.7112 158.412 46.0369C158.346 46.3578 158.312 46.6859 158.312 47.021V47.3184C158.312 47.6535 158.346 47.9839 158.412 48.3096C158.478 48.6353 158.589 48.9303 158.744 49.1946C158.905 49.4589 159.12 49.6713 159.389 49.8318C159.662 49.9875 160.002 50.0654 160.408 50.0654ZM166.355 43.3394V51H165.039V43.3394H166.355ZM164.939 41.3074C164.939 41.095 165.003 40.9156 165.131 40.7693C165.263 40.623 165.456 40.5498 165.711 40.5498C165.961 40.5498 166.153 40.623 166.285 40.7693C166.422 40.9156 166.49 41.095 166.49 41.3074C166.49 41.5103 166.422 41.685 166.285 41.8313C166.153 41.9729 165.961 42.0437 165.711 42.0437C165.456 42.0437 165.263 41.9729 165.131 41.8313C165.003 41.685 164.939 41.5103 164.939 41.3074ZM169.768 44.812V53.9453H168.451V43.3394H169.655L169.768 44.812ZM174.929 47.106V47.2546C174.929 47.8116 174.863 48.3285 174.731 48.8052C174.599 49.2772 174.406 49.6878 174.151 50.0371C173.9 50.3864 173.591 50.6578 173.223 50.8513C172.855 51.0448 172.433 51.1416 171.956 51.1416C171.47 51.1416 171.04 51.0614 170.667 50.9009C170.294 50.7404 169.978 50.5068 169.719 50.2C169.459 49.8931 169.251 49.525 169.095 49.0955C168.944 48.6659 168.841 48.1821 168.784 47.644V46.8511C168.841 46.2847 168.947 45.7773 169.103 45.3289C169.258 44.8805 169.464 44.4981 169.719 44.1819C169.978 43.8609 170.292 43.6178 170.66 43.4526C171.028 43.2827 171.453 43.1978 171.935 43.1978C172.416 43.1978 172.843 43.2922 173.216 43.481C173.589 43.665 173.903 43.9294 174.158 44.2739C174.413 44.6185 174.604 45.0315 174.731 45.5129C174.863 45.9897 174.929 46.5207 174.929 47.106ZM173.613 47.2546V47.106C173.613 46.7236 173.572 46.3649 173.492 46.0298C173.412 45.6899 173.287 45.3926 173.117 45.1377C172.952 44.8781 172.739 44.6751 172.48 44.5288C172.22 44.3778 171.911 44.3022 171.552 44.3022C171.222 44.3022 170.934 44.3589 170.688 44.4722C170.448 44.5854 170.242 44.7389 170.073 44.9324C169.903 45.1212 169.763 45.3383 169.655 45.5837C169.551 45.8245 169.473 46.0746 169.421 46.3342V48.168C169.516 48.4984 169.648 48.8099 169.818 49.1025C169.988 49.3905 170.214 49.6241 170.497 49.8035C170.781 49.9781 171.137 50.0654 171.566 50.0654C171.92 50.0654 172.225 49.9923 172.48 49.8459C172.739 49.6949 172.952 49.4896 173.117 49.23C173.287 48.9704 173.412 48.673 173.492 48.3379C173.572 47.998 173.613 47.637 173.613 47.2546ZM181.117 49.6902V45.7466C181.117 45.4445 181.056 45.1825 180.933 44.9607C180.815 44.7341 180.636 44.5595 180.395 44.4368C180.155 44.314 179.857 44.2527 179.503 44.2527C179.173 44.2527 178.882 44.3093 178.632 44.4226C178.387 44.5359 178.193 44.6846 178.052 44.8687C177.915 45.0527 177.846 45.251 177.846 45.4634H176.537C176.537 45.1896 176.607 44.9182 176.749 44.6492C176.891 44.3801 177.094 44.137 177.358 43.9199C177.627 43.6981 177.948 43.5234 178.321 43.396C178.698 43.2638 179.118 43.1978 179.581 43.1978C180.138 43.1978 180.629 43.2922 181.054 43.481C181.483 43.6698 181.818 43.9553 182.059 44.3376C182.305 44.7153 182.427 45.1896 182.427 45.7607V49.3291C182.427 49.584 182.448 49.8554 182.491 50.1433C182.538 50.4312 182.607 50.679 182.696 50.8867V51H181.33C181.264 50.849 181.212 50.6484 181.174 50.3982C181.136 50.1433 181.117 49.9073 181.117 49.6902ZM181.344 46.3555L181.358 47.2759H180.034C179.661 47.2759 179.329 47.3066 179.036 47.3679C178.743 47.4246 178.498 47.5119 178.3 47.6299C178.101 47.7479 177.95 47.8966 177.846 48.0759C177.743 48.2506 177.691 48.4559 177.691 48.6919C177.691 48.9326 177.745 49.1521 177.854 49.3503C177.962 49.5486 178.125 49.7067 178.342 49.8247C178.564 49.938 178.835 49.9946 179.156 49.9946C179.557 49.9946 179.911 49.9097 180.218 49.7397C180.525 49.5698 180.768 49.3621 180.948 49.1167C181.132 48.8713 181.231 48.6329 181.245 48.4016L181.804 49.0317C181.771 49.23 181.681 49.4495 181.535 49.6902C181.389 49.9309 181.193 50.1622 180.948 50.384C180.707 50.6012 180.419 50.7829 180.084 50.9292C179.753 51.0708 179.38 51.1416 178.965 51.1416C178.446 51.1416 177.99 51.0401 177.599 50.8372C177.212 50.6342 176.91 50.3628 176.692 50.0229C176.48 49.6784 176.374 49.2937 176.374 48.8689C176.374 48.4583 176.454 48.0972 176.615 47.7856C176.775 47.4694 177.006 47.2074 177.308 46.9998C177.61 46.7874 177.974 46.6269 178.399 46.5183C178.823 46.4097 179.298 46.3555 179.822 46.3555H181.344ZM185.797 44.9749V51H184.488V43.3394H185.727L185.797 44.9749ZM185.486 46.8794L184.941 46.8582C184.945 46.3342 185.023 45.8504 185.174 45.4067C185.325 44.9583 185.538 44.5689 185.812 44.2385C186.085 43.9081 186.411 43.6532 186.789 43.4739C187.171 43.2898 187.593 43.1978 188.056 43.1978C188.434 43.1978 188.773 43.2497 189.075 43.3535C189.378 43.4526 189.635 43.6131 189.847 43.835C190.064 44.0568 190.229 44.3447 190.343 44.6987C190.456 45.048 190.513 45.4752 190.513 45.9802V51H189.196V45.9661C189.196 45.5649 189.137 45.2439 189.019 45.0032C188.901 44.7577 188.729 44.5807 188.502 44.4722C188.275 44.3589 187.997 44.3022 187.667 44.3022C187.341 44.3022 187.043 44.3707 186.774 44.5076C186.51 44.6444 186.281 44.8333 186.088 45.074C185.899 45.3147 185.75 45.5908 185.642 45.9023C185.538 46.2091 185.486 46.5348 185.486 46.8794ZM195.709 43.3394V44.3447H191.568V43.3394H195.709ZM192.969 41.4773H194.279V49.1025C194.279 49.3621 194.319 49.558 194.4 49.6902C194.48 49.8223 194.584 49.9097 194.711 49.9521C194.839 49.9946 194.976 50.0159 195.122 50.0159C195.23 50.0159 195.344 50.0064 195.462 49.9875C195.584 49.9639 195.676 49.9451 195.738 49.9309L195.745 51C195.641 51.033 195.504 51.0637 195.334 51.092C195.169 51.1251 194.968 51.1416 194.732 51.1416C194.411 51.1416 194.116 51.0779 193.847 50.9504C193.578 50.823 193.364 50.6106 193.203 50.3132C193.047 50.0111 192.969 49.6052 192.969 49.0955V41.4773ZM201.706 48.968C201.706 48.7792 201.664 48.6046 201.579 48.4441C201.499 48.2789 201.331 48.1302 201.076 47.998C200.826 47.8612 200.448 47.7432 199.943 47.644C199.519 47.5544 199.134 47.4482 198.789 47.3254C198.449 47.2027 198.159 47.054 197.918 46.8794C197.682 46.7048 197.501 46.4994 197.373 46.2634C197.246 46.0274 197.182 45.7513 197.182 45.4351C197.182 45.133 197.248 44.8474 197.38 44.5784C197.517 44.3093 197.708 44.071 197.954 43.8633C198.204 43.6556 198.504 43.4928 198.853 43.3748C199.202 43.2568 199.592 43.1978 200.021 43.1978C200.635 43.1978 201.159 43.3063 201.593 43.5234C202.027 43.7406 202.36 44.0308 202.591 44.3943C202.823 44.753 202.938 45.1519 202.938 45.5908H201.628C201.628 45.3784 201.565 45.1731 201.437 44.9749C201.315 44.7719 201.133 44.6043 200.892 44.4722C200.656 44.34 200.366 44.2739 200.021 44.2739C199.658 44.2739 199.363 44.3306 199.136 44.4438C198.914 44.5524 198.752 44.6917 198.648 44.8616C198.549 45.0315 198.499 45.2109 198.499 45.3997C198.499 45.5413 198.523 45.6687 198.57 45.782C198.622 45.8905 198.711 45.992 198.839 46.0864C198.966 46.1761 199.146 46.2611 199.377 46.3413C199.608 46.4215 199.903 46.5018 200.262 46.582C200.89 46.7236 201.407 46.8936 201.812 47.0918C202.218 47.29 202.521 47.5331 202.719 47.821C202.917 48.109 203.016 48.4583 203.016 48.8689C203.016 49.204 202.945 49.5108 202.804 49.7893C202.667 50.0678 202.466 50.3085 202.202 50.5115C201.942 50.7097 201.631 50.8655 201.267 50.9788C200.909 51.0873 200.505 51.1416 200.057 51.1416C199.382 51.1416 198.811 51.0212 198.343 50.7805C197.876 50.5398 197.522 50.2283 197.281 49.8459C197.041 49.4636 196.92 49.0601 196.92 48.6353H198.237C198.256 48.994 198.36 49.2795 198.549 49.4919C198.737 49.6996 198.969 49.8483 199.242 49.938C199.516 50.0229 199.788 50.0654 200.057 50.0654C200.415 50.0654 200.715 50.0182 200.956 49.9238C201.201 49.8294 201.388 49.6996 201.515 49.5344C201.643 49.3692 201.706 49.1804 201.706 48.968ZM205.926 49.4424V50.4973C205.926 50.9268 205.817 51.38 205.6 51.8567C205.383 52.3381 205.079 52.7393 204.687 53.0603L203.944 52.5435C204.095 52.3358 204.222 52.1234 204.326 51.9062C204.43 51.6938 204.508 51.472 204.56 51.2407C204.616 51.0142 204.645 50.7734 204.645 50.5186V49.4424H205.926ZM211.824 40.6914H213.148L216.525 49.0955L219.895 40.6914H221.226L217.035 51H216.001L211.824 40.6914ZM211.392 40.6914H212.56L212.751 46.9785V51H211.392V40.6914ZM220.483 40.6914H221.651V51H220.292V46.9785L220.483 40.6914ZM228.37 49.6902V45.7466C228.37 45.4445 228.309 45.1825 228.186 44.9607C228.068 44.7341 227.888 44.5595 227.648 44.4368C227.407 44.314 227.11 44.2527 226.756 44.2527C226.425 44.2527 226.135 44.3093 225.885 44.4226C225.639 44.5359 225.446 44.6846 225.304 44.8687C225.167 45.0527 225.099 45.251 225.099 45.4634H223.789C223.789 45.1896 223.86 44.9182 224.001 44.6492C224.143 44.3801 224.346 44.137 224.61 43.9199C224.879 43.6981 225.2 43.5234 225.573 43.396C225.951 43.2638 226.371 43.1978 226.833 43.1978C227.39 43.1978 227.881 43.2922 228.306 43.481C228.736 43.6698 229.071 43.9553 229.312 44.3376C229.557 44.7153 229.68 45.1896 229.68 45.7607V49.3291C229.68 49.584 229.701 49.8554 229.743 50.1433C229.791 50.4312 229.859 50.679 229.949 50.8867V51H228.582C228.516 50.849 228.464 50.6484 228.427 50.3982C228.389 50.1433 228.37 49.9073 228.37 49.6902ZM228.596 46.3555L228.611 47.2759H227.287C226.914 47.2759 226.581 47.3066 226.288 47.3679C225.996 47.4246 225.75 47.5119 225.552 47.6299C225.354 47.7479 225.203 47.8966 225.099 48.0759C224.995 48.2506 224.943 48.4559 224.943 48.6919C224.943 48.9326 224.997 49.1521 225.106 49.3503C225.215 49.5486 225.377 49.7067 225.594 49.8247C225.816 49.938 226.088 49.9946 226.409 49.9946C226.81 49.9946 227.164 49.9097 227.471 49.7397C227.778 49.5698 228.021 49.3621 228.2 49.1167C228.384 48.8713 228.483 48.6329 228.497 48.4016L229.057 49.0317C229.024 49.23 228.934 49.4495 228.788 49.6902C228.641 49.9309 228.445 50.1622 228.2 50.384C227.959 50.6012 227.671 50.7829 227.336 50.9292C227.006 51.0708 226.633 51.1416 226.218 51.1416C225.698 51.1416 225.243 51.0401 224.851 50.8372C224.464 50.6342 224.162 50.3628 223.945 50.0229C223.732 49.6784 223.626 49.2937 223.626 48.8689C223.626 48.4583 223.706 48.0972 223.867 47.7856C224.027 47.4694 224.259 47.2074 224.561 46.9998C224.863 46.7874 225.226 46.6269 225.651 46.5183C226.076 46.4097 226.55 46.3555 227.074 46.3555H228.596ZM233.05 44.9749V51H231.74V43.3394H232.979L233.05 44.9749ZM232.738 46.8794L232.193 46.8582C232.198 46.3342 232.276 45.8504 232.427 45.4067C232.578 44.9583 232.79 44.5689 233.064 44.2385C233.338 43.9081 233.663 43.6532 234.041 43.4739C234.423 43.2898 234.846 43.1978 235.308 43.1978C235.686 43.1978 236.026 43.2497 236.328 43.3535C236.63 43.4526 236.887 43.6131 237.1 43.835C237.317 44.0568 237.482 44.3447 237.595 44.6987C237.708 45.048 237.765 45.4752 237.765 45.9802V51H236.448V45.9661C236.448 45.5649 236.389 45.2439 236.271 45.0032C236.153 44.7577 235.981 44.5807 235.754 44.4722C235.528 44.3589 235.249 44.3022 234.919 44.3022C234.593 44.3022 234.296 44.3707 234.027 44.5076C233.763 44.6444 233.534 44.8333 233.34 45.074C233.151 45.3147 233.003 45.5908 232.894 45.9023C232.79 46.2091 232.738 46.5348 232.738 46.8794ZM244.272 49.6902V45.7466C244.272 45.4445 244.21 45.1825 244.088 44.9607C243.97 44.7341 243.79 44.5595 243.55 44.4368C243.309 44.314 243.011 44.2527 242.657 44.2527C242.327 44.2527 242.037 44.3093 241.787 44.4226C241.541 44.5359 241.348 44.6846 241.206 44.8687C241.069 45.0527 241.001 45.251 241.001 45.4634H239.691C239.691 45.1896 239.762 44.9182 239.903 44.6492C240.045 44.3801 240.248 44.137 240.512 43.9199C240.781 43.6981 241.102 43.5234 241.475 43.396C241.853 43.2638 242.273 43.1978 242.735 43.1978C243.292 43.1978 243.783 43.2922 244.208 43.481C244.638 43.6698 244.973 43.9553 245.213 44.3376C245.459 44.7153 245.582 45.1896 245.582 45.7607V49.3291C245.582 49.584 245.603 49.8554 245.645 50.1433C245.692 50.4312 245.761 50.679 245.851 50.8867V51H244.484C244.418 50.849 244.366 50.6484 244.328 50.3982C244.291 50.1433 244.272 49.9073 244.272 49.6902ZM244.498 46.3555L244.512 47.2759H243.188C242.816 47.2759 242.483 47.3066 242.19 47.3679C241.898 47.4246 241.652 47.5119 241.454 47.6299C241.256 47.7479 241.105 47.8966 241.001 48.0759C240.897 48.2506 240.845 48.4559 240.845 48.6919C240.845 48.9326 240.899 49.1521 241.008 49.3503C241.116 49.5486 241.279 49.7067 241.496 49.8247C241.718 49.938 241.99 49.9946 242.311 49.9946C242.712 49.9946 243.066 49.9097 243.373 49.7397C243.679 49.5698 243.922 49.3621 244.102 49.1167C244.286 48.8713 244.385 48.6329 244.399 48.4016L244.958 49.0317C244.925 49.23 244.836 49.4495 244.689 49.6902C244.543 49.9309 244.347 50.1622 244.102 50.384C243.861 50.6012 243.573 50.7829 243.238 50.9292C242.908 51.0708 242.535 51.1416 242.119 51.1416C241.6 51.1416 241.145 51.0401 240.753 50.8372C240.366 50.6342 240.064 50.3628 239.847 50.0229C239.634 49.6784 239.528 49.2937 239.528 48.8689C239.528 48.4583 239.608 48.0972 239.769 47.7856C239.929 47.4694 240.161 47.2074 240.463 46.9998C240.765 46.7874 241.128 46.6269 241.553 46.5183C241.978 46.4097 242.452 46.3555 242.976 46.3555H244.498ZM252.605 43.3394H253.794V50.8372C253.794 51.5121 253.658 52.088 253.384 52.5647C253.11 53.0414 252.728 53.4025 252.237 53.6479C251.751 53.8981 251.189 54.0232 250.552 54.0232C250.287 54.0232 249.976 53.9807 249.617 53.8958C249.263 53.8155 248.914 53.6763 248.569 53.478C248.229 53.2845 247.944 53.0225 247.713 52.6921L248.399 51.9133C248.72 52.3004 249.056 52.5694 249.405 52.7205C249.759 52.8715 250.108 52.947 250.453 52.947C250.868 52.947 251.227 52.8691 251.529 52.7134C251.831 52.5576 252.065 52.3263 252.23 52.0195C252.4 51.7174 252.485 51.3446 252.485 50.9009V45.0244L252.605 43.3394ZM247.33 47.2546V47.106C247.33 46.5207 247.399 45.9897 247.536 45.5129C247.677 45.0315 247.878 44.6185 248.137 44.2739C248.402 43.9294 248.72 43.665 249.093 43.481C249.466 43.2922 249.886 43.1978 250.354 43.1978C250.835 43.1978 251.255 43.2827 251.614 43.4526C251.977 43.6178 252.284 43.8609 252.534 44.1819C252.789 44.4981 252.99 44.8805 253.136 45.3289C253.282 45.7773 253.384 46.2847 253.44 46.8511V47.5024C253.389 48.0641 253.287 48.5692 253.136 49.0176C252.99 49.466 252.789 49.8483 252.534 50.1646C252.284 50.4808 251.977 50.7239 251.614 50.8938C251.25 51.059 250.826 51.1416 250.339 51.1416C249.882 51.1416 249.466 51.0448 249.093 50.8513C248.725 50.6578 248.409 50.3864 248.145 50.0371C247.88 49.6878 247.677 49.2772 247.536 48.8052C247.399 48.3285 247.33 47.8116 247.33 47.2546ZM248.64 47.106V47.2546C248.64 47.637 248.678 47.9957 248.753 48.3308C248.834 48.6659 248.954 48.9609 249.115 49.2158C249.28 49.4707 249.49 49.6713 249.745 49.8176C250 49.9592 250.304 50.03 250.658 50.03C251.092 50.03 251.451 49.938 251.734 49.7539C252.017 49.5698 252.242 49.3267 252.407 49.0247C252.577 48.7226 252.709 48.3945 252.803 48.0405V46.3342C252.751 46.0746 252.671 45.8245 252.562 45.5837C252.459 45.3383 252.322 45.1212 252.152 44.9324C251.987 44.7389 251.781 44.5854 251.536 44.4722C251.29 44.3589 251.003 44.3022 250.672 44.3022C250.313 44.3022 250.004 44.3778 249.745 44.5288C249.49 44.6751 249.28 44.8781 249.115 45.1377C248.954 45.3926 248.834 45.6899 248.753 46.0298C248.678 46.3649 248.64 46.7236 248.64 47.106ZM258.963 51.1416C258.43 51.1416 257.946 51.0519 257.511 50.8726C257.082 50.6885 256.711 50.4312 256.4 50.1008C256.093 49.7704 255.857 49.3787 255.692 48.9255C255.527 48.4724 255.444 47.9768 255.444 47.4387V47.1414C255.444 46.5183 255.536 45.9637 255.72 45.4775C255.904 44.9867 256.154 44.5713 256.471 44.2314C256.787 43.8916 257.146 43.6344 257.547 43.4597C257.948 43.2851 258.363 43.1978 258.793 43.1978C259.34 43.1978 259.812 43.2922 260.209 43.481C260.61 43.6698 260.938 43.9341 261.193 44.2739C261.448 44.609 261.637 45.0055 261.76 45.4634C261.882 45.9165 261.944 46.4121 261.944 46.9502V47.5378H256.223V46.4688H260.634V46.3696C260.615 46.0298 260.544 45.6994 260.421 45.3784C260.303 45.0575 260.115 44.7931 259.855 44.5854C259.595 44.3778 259.241 44.2739 258.793 44.2739C258.496 44.2739 258.222 44.3376 257.972 44.4651C257.722 44.5878 257.507 44.7719 257.327 45.0173C257.148 45.2628 257.009 45.5625 256.91 45.9165C256.811 46.2705 256.761 46.6788 256.761 47.1414V47.4387C256.761 47.8022 256.811 48.1444 256.91 48.4653C257.014 48.7816 257.162 49.0601 257.356 49.3008C257.554 49.5415 257.792 49.7303 258.071 49.8672C258.354 50.0041 258.675 50.0725 259.034 50.0725C259.496 50.0725 259.888 49.9781 260.209 49.7893C260.53 49.6005 260.811 49.348 261.052 49.0317L261.844 49.6619C261.679 49.912 261.469 50.1504 261.214 50.377C260.959 50.6035 260.646 50.7876 260.273 50.9292C259.905 51.0708 259.468 51.1416 258.963 51.1416ZM269.01 49.6406L270.978 43.3394H271.842L271.672 44.5925L269.668 51H268.825L269.01 49.6406ZM267.686 43.3394L269.364 49.7114L269.484 51H268.599L266.376 43.3394H267.686ZM273.725 49.6619L275.325 43.3394H276.628L274.405 51H273.527L273.725 49.6619ZM272.033 43.3394L273.958 49.5344L274.178 51H273.343L271.282 44.5784L271.112 43.3394H272.033ZM279.396 43.3394V51H278.079V43.3394H279.396ZM277.98 41.3074C277.98 41.095 278.044 40.9156 278.171 40.7693C278.303 40.623 278.497 40.5498 278.752 40.5498C279.002 40.5498 279.193 40.623 279.325 40.7693C279.462 40.9156 279.531 41.095 279.531 41.3074C279.531 41.5103 279.462 41.685 279.325 41.8313C279.193 41.9729 279.002 42.0437 278.752 42.0437C278.497 42.0437 278.303 41.9729 278.171 41.8313C278.044 41.685 277.98 41.5103 277.98 41.3074ZM284.706 43.3394V44.3447H280.564V43.3394H284.706ZM281.966 41.4773H283.276V49.1025C283.276 49.3621 283.316 49.558 283.396 49.6902C283.476 49.8223 283.58 49.9097 283.708 49.9521C283.835 49.9946 283.972 50.0159 284.118 50.0159C284.227 50.0159 284.34 50.0064 284.458 49.9875C284.581 49.9639 284.673 49.9451 284.734 49.9309L284.741 51C284.638 51.033 284.501 51.0637 284.331 51.092C284.166 51.1251 283.965 51.1416 283.729 51.1416C283.408 51.1416 283.113 51.0779 282.844 50.9504C282.575 50.823 282.36 50.6106 282.2 50.3132C282.044 50.0111 281.966 49.6052 281.966 49.0955V41.4773ZM287.552 40.125V51H286.242V40.125H287.552ZM287.241 46.8794L286.696 46.8582C286.7 46.3342 286.778 45.8504 286.929 45.4067C287.08 44.9583 287.293 44.5689 287.566 44.2385C287.84 43.9081 288.166 43.6532 288.543 43.4739C288.926 43.2898 289.348 43.1978 289.811 43.1978C290.188 43.1978 290.528 43.2497 290.83 43.3535C291.132 43.4526 291.39 43.6131 291.602 43.835C291.819 44.0568 291.984 44.3447 292.098 44.6987C292.211 45.048 292.268 45.4752 292.268 45.9802V51H290.951V45.9661C290.951 45.5649 290.892 45.2439 290.774 45.0032C290.656 44.7577 290.483 44.5807 290.257 44.4722C290.03 44.3589 289.752 44.3022 289.421 44.3022C289.096 44.3022 288.798 44.3707 288.529 44.5076C288.265 44.6444 288.036 44.8333 287.843 45.074C287.654 45.3147 287.505 45.5908 287.396 45.9023C287.293 46.2091 287.241 46.5348 287.241 46.8794ZM304.573 49.8884V51H299.114V49.8884H304.573ZM299.39 40.6914V51H298.024V40.6914H299.39ZM303.851 45.1235V46.2351H299.114V45.1235H303.851ZM304.502 40.6914V41.8101H299.114V40.6914H304.502ZM310.584 49.6902V45.7466C310.584 45.4445 310.522 45.1825 310.4 44.9607C310.282 44.7341 310.102 44.5595 309.862 44.4368C309.621 44.314 309.323 44.2527 308.969 44.2527C308.639 44.2527 308.349 44.3093 308.099 44.4226C307.853 44.5359 307.66 44.6846 307.518 44.8687C307.381 45.0527 307.313 45.251 307.313 45.4634H306.003C306.003 45.1896 306.074 44.9182 306.215 44.6492C306.357 44.3801 306.56 44.137 306.824 43.9199C307.093 43.6981 307.414 43.5234 307.787 43.396C308.165 43.2638 308.585 43.1978 309.047 43.1978C309.604 43.1978 310.095 43.2922 310.52 43.481C310.95 43.6698 311.285 43.9553 311.525 44.3376C311.771 44.7153 311.894 45.1896 311.894 45.7607V49.3291C311.894 49.584 311.915 49.8554 311.957 50.1433C312.004 50.4312 312.073 50.679 312.163 50.8867V51H310.796C310.73 50.849 310.678 50.6484 310.64 50.3982C310.603 50.1433 310.584 49.9073 310.584 49.6902ZM310.81 46.3555L310.824 47.2759H309.5C309.128 47.2759 308.795 47.3066 308.502 47.3679C308.21 47.4246 307.964 47.5119 307.766 47.6299C307.568 47.7479 307.417 47.8966 307.313 48.0759C307.209 48.2506 307.157 48.4559 307.157 48.6919C307.157 48.9326 307.211 49.1521 307.32 49.3503C307.428 49.5486 307.591 49.7067 307.808 49.8247C308.03 49.938 308.302 49.9946 308.623 49.9946C309.024 49.9946 309.378 49.9097 309.685 49.7397C309.991 49.5698 310.234 49.3621 310.414 49.1167C310.598 48.8713 310.697 48.6329 310.711 48.4016L311.271 49.0317C311.237 49.23 311.148 49.4495 311.001 49.6902C310.855 49.9309 310.659 50.1622 310.414 50.384C310.173 50.6012 309.885 50.7829 309.55 50.9292C309.22 51.0708 308.847 51.1416 308.431 51.1416C307.912 51.1416 307.457 51.0401 307.065 50.8372C306.678 50.6342 306.376 50.3628 306.159 50.0229C305.946 49.6784 305.84 49.2937 305.84 48.8689C305.84 48.4583 305.92 48.0972 306.081 47.7856C306.241 47.4694 306.473 47.2074 306.775 46.9998C307.077 46.7874 307.44 46.6269 307.865 46.5183C308.29 46.4097 308.764 46.3555 309.288 46.3555H310.81ZM318.414 48.968C318.414 48.7792 318.372 48.6046 318.287 48.4441C318.207 48.2789 318.039 48.1302 317.784 47.998C317.534 47.8612 317.156 47.7432 316.651 47.644C316.227 47.5544 315.842 47.4482 315.497 47.3254C315.157 47.2027 314.867 47.054 314.626 46.8794C314.39 46.7048 314.209 46.4994 314.081 46.2634C313.954 46.0274 313.89 45.7513 313.89 45.4351C313.89 45.133 313.956 44.8474 314.088 44.5784C314.225 44.3093 314.416 44.071 314.662 43.8633C314.912 43.6556 315.212 43.4928 315.561 43.3748C315.91 43.2568 316.3 43.1978 316.729 43.1978C317.343 43.1978 317.867 43.3063 318.301 43.5234C318.735 43.7406 319.068 44.0308 319.299 44.3943C319.531 44.753 319.646 45.1519 319.646 45.5908H318.336C318.336 45.3784 318.273 45.1731 318.145 44.9749C318.023 44.7719 317.841 44.6043 317.6 44.4722C317.364 44.34 317.074 44.2739 316.729 44.2739C316.366 44.2739 316.071 44.3306 315.844 44.4438C315.622 44.5524 315.46 44.6917 315.356 44.8616C315.257 45.0315 315.207 45.2109 315.207 45.3997C315.207 45.5413 315.231 45.6687 315.278 45.782C315.33 45.8905 315.419 45.992 315.547 46.0864C315.674 46.1761 315.854 46.2611 316.085 46.3413C316.316 46.4215 316.611 46.5018 316.97 46.582C317.598 46.7236 318.115 46.8936 318.521 47.0918C318.926 47.29 319.229 47.5331 319.427 47.821C319.625 48.109 319.724 48.4583 319.724 48.8689C319.724 49.204 319.653 49.5108 319.512 49.7893C319.375 50.0678 319.174 50.3085 318.91 50.5115C318.65 50.7097 318.339 50.8655 317.975 50.9788C317.617 51.0873 317.213 51.1416 316.765 51.1416C316.09 51.1416 315.519 51.0212 315.051 50.7805C314.584 50.5398 314.23 50.2283 313.989 49.8459C313.749 49.4636 313.628 49.0601 313.628 48.6353H314.945C314.964 48.994 315.068 49.2795 315.257 49.4919C315.445 49.6996 315.677 49.8483 315.95 49.938C316.224 50.0229 316.496 50.0654 316.765 50.0654C317.123 50.0654 317.423 50.0182 317.664 49.9238C317.909 49.8294 318.096 49.6996 318.223 49.5344C318.351 49.3692 318.414 49.1804 318.414 48.968ZM324.624 51.1416C324.09 51.1416 323.606 51.0519 323.172 50.8726C322.743 50.6885 322.372 50.4312 322.061 50.1008C321.754 49.7704 321.518 49.3787 321.353 48.9255C321.187 48.4724 321.105 47.9768 321.105 47.4387V47.1414C321.105 46.5183 321.197 45.9637 321.381 45.4775C321.565 44.9867 321.815 44.5713 322.131 44.2314C322.448 43.8916 322.806 43.6344 323.208 43.4597C323.609 43.2851 324.024 43.1978 324.454 43.1978C325.001 43.1978 325.473 43.2922 325.87 43.481C326.271 43.6698 326.599 43.9341 326.854 44.2739C327.109 44.609 327.297 45.0055 327.42 45.4634C327.543 45.9165 327.604 46.4121 327.604 46.9502V47.5378H321.884V46.4688H326.294V46.3696C326.276 46.0298 326.205 45.6994 326.082 45.3784C325.964 45.0575 325.775 44.7931 325.516 44.5854C325.256 44.3778 324.902 44.2739 324.454 44.2739C324.156 44.2739 323.882 44.3376 323.632 44.4651C323.382 44.5878 323.167 44.7719 322.988 45.0173C322.809 45.2628 322.669 45.5625 322.57 45.9165C322.471 46.2705 322.422 46.6788 322.422 47.1414V47.4387C322.422 47.8022 322.471 48.1444 322.57 48.4653C322.674 48.7816 322.823 49.0601 323.016 49.3008C323.215 49.5415 323.453 49.7303 323.731 49.8672C324.015 50.0041 324.336 50.0725 324.694 50.0725C325.157 50.0725 325.549 49.9781 325.87 49.7893C326.191 49.6005 326.471 49.348 326.712 49.0317L327.505 49.6619C327.34 49.912 327.13 50.1504 326.875 50.377C326.62 50.6035 326.306 50.7876 325.933 50.9292C325.565 51.0708 325.129 51.1416 324.624 51.1416Z" fill="#4B93AD"/>
</svg>
